<mxfile host="app.diagrams.net" modified="2023-08-08T16:02:40.792Z" agent="Mozilla/5.0 (Windows NT 10.0; Win64; x64; rv:109.0) Gecko/20100101 Firefox/116.0" etag="q-aKAKgafbJ5i5-mQfar" version="21.6.6" type="device">
  <diagram name="Pagina-1" id="ruED8KApXvsvsav0EOmQ">
    <mxGraphModel dx="1366" dy="788" grid="1" gridSize="10" guides="1" tooltips="1" connect="1" arrows="1" fold="1" page="1" pageScale="1" pageWidth="1654" pageHeight="1169" math="0" shadow="0">
      <root>
        <mxCell id="0" />
        <mxCell id="1" parent="0" />
        <mxCell id="Hz8rqVoHaeQYQRgCHm7I-2" style="edgeStyle=orthogonalEdgeStyle;rounded=0;orthogonalLoop=1;jettySize=auto;html=1;endArrow=none;endFill=0;" edge="1" parent="1" source="Hz8rqVoHaeQYQRgCHm7I-1" target="Hz8rqVoHaeQYQRgCHm7I-3">
          <mxGeometry relative="1" as="geometry">
            <mxPoint x="630" y="370" as="targetPoint" />
          </mxGeometry>
        </mxCell>
        <mxCell id="Hz8rqVoHaeQYQRgCHm7I-54" style="edgeStyle=orthogonalEdgeStyle;rounded=0;orthogonalLoop=1;jettySize=auto;html=1;" edge="1" parent="1" source="Hz8rqVoHaeQYQRgCHm7I-1">
          <mxGeometry relative="1" as="geometry">
            <mxPoint x="480" y="440" as="targetPoint" />
            <Array as="points">
              <mxPoint x="480" y="470" />
              <mxPoint x="480" y="470" />
            </Array>
          </mxGeometry>
        </mxCell>
        <mxCell id="Hz8rqVoHaeQYQRgCHm7I-1" value="&lt;font style=&quot;font-size: 12px;&quot;&gt;Film&lt;/font&gt;" style="rounded=0;whiteSpace=wrap;html=1;fillColor=#fff2cc;strokeColor=#d6b656;" vertex="1" parent="1">
          <mxGeometry x="420" y="340" width="120" height="60" as="geometry" />
        </mxCell>
        <mxCell id="Hz8rqVoHaeQYQRgCHm7I-4" style="edgeStyle=orthogonalEdgeStyle;rounded=0;orthogonalLoop=1;jettySize=auto;html=1;endArrow=none;endFill=0;" edge="1" parent="1" source="Hz8rqVoHaeQYQRgCHm7I-3" target="Hz8rqVoHaeQYQRgCHm7I-5">
          <mxGeometry relative="1" as="geometry">
            <mxPoint x="830" y="370" as="targetPoint" />
          </mxGeometry>
        </mxCell>
        <mxCell id="Hz8rqVoHaeQYQRgCHm7I-77" style="edgeStyle=orthogonalEdgeStyle;rounded=0;orthogonalLoop=1;jettySize=auto;html=1;" edge="1" parent="1" source="Hz8rqVoHaeQYQRgCHm7I-3">
          <mxGeometry relative="1" as="geometry">
            <mxPoint x="720" y="740" as="targetPoint" />
          </mxGeometry>
        </mxCell>
        <mxCell id="Hz8rqVoHaeQYQRgCHm7I-3" value="Partecipazione" style="rhombus;whiteSpace=wrap;html=1;fillColor=#fff2cc;strokeColor=#d6b656;" vertex="1" parent="1">
          <mxGeometry x="670" y="330" width="100" height="80" as="geometry" />
        </mxCell>
        <mxCell id="Hz8rqVoHaeQYQRgCHm7I-69" style="edgeStyle=orthogonalEdgeStyle;rounded=0;orthogonalLoop=1;jettySize=auto;html=1;" edge="1" parent="1" source="Hz8rqVoHaeQYQRgCHm7I-5" target="Hz8rqVoHaeQYQRgCHm7I-70">
          <mxGeometry relative="1" as="geometry">
            <mxPoint x="960" y="560" as="targetPoint" />
          </mxGeometry>
        </mxCell>
        <mxCell id="Hz8rqVoHaeQYQRgCHm7I-5" value="Attori" style="rounded=0;whiteSpace=wrap;html=1;fillColor=#fff2cc;strokeColor=#d6b656;" vertex="1" parent="1">
          <mxGeometry x="900" y="340" width="120" height="60" as="geometry" />
        </mxCell>
        <mxCell id="Hz8rqVoHaeQYQRgCHm7I-8" value="Premio" style="rounded=0;whiteSpace=wrap;html=1;fillColor=#fff2cc;strokeColor=#d6b656;" vertex="1" parent="1">
          <mxGeometry x="420" y="580" width="120" height="60" as="geometry" />
        </mxCell>
        <mxCell id="Hz8rqVoHaeQYQRgCHm7I-38" style="edgeStyle=orthogonalEdgeStyle;rounded=0;orthogonalLoop=1;jettySize=auto;html=1;strokeColor=none;" edge="1" parent="1">
          <mxGeometry relative="1" as="geometry">
            <mxPoint x="470" y="940" as="targetPoint" />
            <mxPoint x="630" y="820" as="sourcePoint" />
          </mxGeometry>
        </mxCell>
        <mxCell id="Hz8rqVoHaeQYQRgCHm7I-56" style="edgeStyle=orthogonalEdgeStyle;rounded=0;orthogonalLoop=1;jettySize=auto;html=1;" edge="1" parent="1" source="Hz8rqVoHaeQYQRgCHm7I-55" target="Hz8rqVoHaeQYQRgCHm7I-8">
          <mxGeometry relative="1" as="geometry" />
        </mxCell>
        <mxCell id="Hz8rqVoHaeQYQRgCHm7I-58" value="" style="edgeStyle=orthogonalEdgeStyle;rounded=0;orthogonalLoop=1;jettySize=auto;html=1;" edge="1" parent="1" source="Hz8rqVoHaeQYQRgCHm7I-55" target="Hz8rqVoHaeQYQRgCHm7I-1">
          <mxGeometry relative="1" as="geometry" />
        </mxCell>
        <mxCell id="Hz8rqVoHaeQYQRgCHm7I-80" style="edgeStyle=orthogonalEdgeStyle;rounded=0;orthogonalLoop=1;jettySize=auto;html=1;" edge="1" parent="1" source="Hz8rqVoHaeQYQRgCHm7I-55" target="Hz8rqVoHaeQYQRgCHm7I-78">
          <mxGeometry relative="1" as="geometry" />
        </mxCell>
        <mxCell id="Hz8rqVoHaeQYQRgCHm7I-55" value="Vinto" style="rhombus;whiteSpace=wrap;html=1;fillColor=#fff2cc;strokeColor=#d6b656;" vertex="1" parent="1">
          <mxGeometry x="430" y="450" width="100" height="80" as="geometry" />
        </mxCell>
        <mxCell id="Hz8rqVoHaeQYQRgCHm7I-73" style="edgeStyle=orthogonalEdgeStyle;rounded=0;orthogonalLoop=1;jettySize=auto;html=1;" edge="1" parent="1" source="Hz8rqVoHaeQYQRgCHm7I-70" target="Hz8rqVoHaeQYQRgCHm7I-8">
          <mxGeometry relative="1" as="geometry" />
        </mxCell>
        <mxCell id="Hz8rqVoHaeQYQRgCHm7I-76" style="edgeStyle=orthogonalEdgeStyle;rounded=0;orthogonalLoop=1;jettySize=auto;html=1;" edge="1" parent="1" source="Hz8rqVoHaeQYQRgCHm7I-70">
          <mxGeometry relative="1" as="geometry">
            <mxPoint x="770" y="720" as="targetPoint" />
            <Array as="points">
              <mxPoint x="960" y="720" />
              <mxPoint x="770" y="720" />
              <mxPoint x="770" y="730" />
            </Array>
          </mxGeometry>
        </mxCell>
        <mxCell id="Hz8rqVoHaeQYQRgCHm7I-70" value="Vinto" style="rhombus;whiteSpace=wrap;html=1;fillColor=#fff2cc;strokeColor=#d6b656;" vertex="1" parent="1">
          <mxGeometry x="910" y="570" width="100" height="80" as="geometry" />
        </mxCell>
        <mxCell id="Hz8rqVoHaeQYQRgCHm7I-79" style="edgeStyle=orthogonalEdgeStyle;rounded=0;orthogonalLoop=1;jettySize=auto;html=1;" edge="1" parent="1" source="Hz8rqVoHaeQYQRgCHm7I-74" target="Hz8rqVoHaeQYQRgCHm7I-78">
          <mxGeometry relative="1" as="geometry" />
        </mxCell>
        <mxCell id="Hz8rqVoHaeQYQRgCHm7I-74" value="Premi Vinti Nel Film" style="rounded=0;whiteSpace=wrap;html=1;" vertex="1" parent="1">
          <mxGeometry x="660" y="690" width="120" height="60" as="geometry" />
        </mxCell>
        <mxCell id="Hz8rqVoHaeQYQRgCHm7I-81" style="edgeStyle=orthogonalEdgeStyle;rounded=0;orthogonalLoop=1;jettySize=auto;html=1;" edge="1" parent="1" source="Hz8rqVoHaeQYQRgCHm7I-78" target="Hz8rqVoHaeQYQRgCHm7I-1">
          <mxGeometry relative="1" as="geometry">
            <mxPoint x="320" y="320" as="targetPoint" />
            <Array as="points">
              <mxPoint x="150" y="720" />
              <mxPoint x="150" y="370" />
            </Array>
          </mxGeometry>
        </mxCell>
        <mxCell id="Hz8rqVoHaeQYQRgCHm7I-78" value="Rating" style="whiteSpace=wrap;html=1;" vertex="1" parent="1">
          <mxGeometry x="240" y="690" width="120" height="60" as="geometry" />
        </mxCell>
      </root>
    </mxGraphModel>
  </diagram>
</mxfile>
